<svg width="150" height="150" viewBox="0 0 150 150" fill="none" xmlns="http://www.w3.org/2000/svg">
<path d="M22.433 109.637V118.045C22.433 126.373 28.3862 131.15 35.5721 131.15H40.5287V109.637H22.433Z" fill="#FF9F6B"/>
<path d="M127.219 76.0741C127.219 67.4427 125.514 59.5501 122.406 52.6214C118.197 49.7838 113.516 47.527 108.481 45.9168C108.874 48.7017 109.084 51.592 109.084 54.5615C109.084 87.3322 84.7203 109.65 53.0005 109.65H40.5302V131.163H71.1483C102.855 131.15 127.219 108.832 127.219 76.0741Z" fill="#FF7D11"/>
<path d="M35.5728 21.5129H71.1479C83.6969 21.5129 95.0917 24.9576 104.284 31.1211C95.6819 11.8783 76.3276 0 53.0129 0H17.4247C10.2389 0 4.28571 5.31883 4.28571 13.6336V96.5306C4.28571 104.859 10.2389 109.636 17.4247 109.636H22.4207V35.1465C22.4338 26.8317 28.387 21.5129 35.5728 21.5129Z" fill="#FD886D"/>
<path d="M40.5287 56.6267C40.5287 48.2987 46.4819 42.9934 53.6677 42.9934H89.2559C96.0611 42.9934 102.526 44.0096 108.492 45.9232C107.745 40.6308 106.316 35.6815 104.283 31.1414C95.0909 24.9647 83.696 21.5332 71.147 21.5332H35.5721C28.3862 21.5332 22.433 26.852 22.433 35.1668V109.657H40.5418V56.6267H40.5287Z" fill="#FE6E42"/>
<path d="M53.669 42.9833C46.4832 42.9833 40.5302 48.3023 40.5302 56.617V109.634H53.0005C84.7203 109.634 109.084 87.316 109.084 54.5448C109.084 51.5753 108.874 48.685 108.481 45.9001C102.514 43.9865 96.0496 42.9704 89.2443 42.9704H53.669V42.9833Z" fill="#F95611"/>
<path d="M122.42 52.6169C125.527 59.5461 127.232 67.4387 127.232 76.0701C127.232 108.841 102.868 131.159 71.1483 131.159H40.5302V136.887C40.5302 145.215 46.4832 149.993 53.669 149.993H89.2572C120.977 149.993 145.341 127.965 145.341 96.2237C145.341 76.5321 136.45 62.0404 122.42 52.6169Z" fill="url(#paint0_linear_16_2)"/>
<path d="M122.432 52.6213C118.459 43.7391 112.191 36.4273 104.297 31.1216C106.329 35.6618 107.759 40.611 108.506 45.9034C113.541 47.5268 118.223 49.7837 122.432 52.6213Z" fill="#FF9F6B"/>
<defs>
<linearGradient id="paint0_linear_16_2" x1="40.534" y1="101.298" x2="145.337" y2="101.298" gradientUnits="userSpaceOnUse">
<stop stop-color="#FFB738"/>
<stop offset="1" stop-color="#FBAD18"/>
</linearGradient>
</defs>
</svg>
