<svg width="32" height="32" viewBox="0 0 32 32" fill="none" xmlns="http://www.w3.org/2000/svg">
<path d="M29.8836 6.14598L16.7418 29.6457C16.4704 30.1308 15.7734 30.1337 15.4979 29.6509L2.09562 6.14818C1.79562 5.62198 2.24542 4.98468 2.84162 5.09118L15.9976 7.44278C16.0815 7.45778 16.1675 7.45765 16.2513 7.44238L29.1321 5.09458C29.7263 4.98628 30.1784 5.61878 29.8836 6.14598Z" fill="#FF6900"/>
<path d="M22.2794 1.40137C22.9236 1.3622 23.4384 1.97756 23.253 2.62207V2.62305L21.543 8.54785L23.9415 8.08496L24.085 8.06738C24.7935 8.03474 25.3121 8.78847 24.9786 9.4541L17.0538 25.2686L17.0391 25.2979L17.0215 25.3262L16.878 25.5479C16.3028 26.4366 14.9223 25.8716 15.1368 24.834L16.3321 19.0459L15.0508 19.4355C14.3569 19.6461 13.6897 19.0386 13.835 18.3281L14.5635 14.7598L12.2247 15.2998C11.6019 15.4435 11.0164 14.9477 11.0538 14.3105L11.6524 4.20605C11.665 3.99434 11.7472 3.79251 11.8868 3.63281C12.0265 3.473 12.2156 3.364 12.4239 3.32324L22.1495 1.41797L22.2794 1.40137Z" fill="#FF6900" stroke="white" stroke-width="1.2"/>
</svg>
